<?xml version="1.0" encoding="UTF-8"?>
<svg version="1.1" xmlns="http://www.w3.org/2000/svg" width="752" height="767">
<path d="M0 0 C0.79470703 -0.00386719 1.58941406 -0.00773437 2.40820312 -0.01171875 C18.8393694 0.01502033 32.44356077 4.85978075 46.5625 13.125 C47.16006104 13.45999512 47.75762207 13.79499023 48.37329102 14.14013672 C54.09641599 17.49125584 58.59877704 21.67805457 63.25 26.375 C63.98283203 27.08785156 64.71566406 27.80070312 65.47070312 28.53515625 C70.26022639 33.3289983 73.56707298 38.06913103 76.5625 44.125 C77.27122429 45.44520093 77.98208465 46.76425789 78.6953125 48.08203125 C79.36135128 49.36616439 80.02543465 50.65131375 80.6875 51.9375 C81.02136719 52.55947266 81.35523438 53.18144531 81.69921875 53.82226562 C87.26195256 64.69686486 88.1070218 75.76191665 88 87.8125 C87.99762329 88.51610657 87.99524658 89.21971313 87.99279785 89.94464111 C87.9195176 103.80760975 86.06393969 115.82095552 80.5703125 128.625 C76.88958186 137.75549461 75.08605806 147.01419237 74.15234375 156.75 C73.48757577 160.55370552 72.3698712 164.3176288 69.5625 167.125 C67.78178754 167.21226223 65.9976686 167.23199041 64.21484375 167.22265625 C63.13525391 167.21943359 62.05566406 167.21621094 60.94335938 167.21289062 C59.80705078 167.20451172 58.67074219 167.19613281 57.5 167.1875 C56.35982422 167.18298828 55.21964844 167.17847656 54.04492188 167.17382812 C51.21739649 167.16199747 48.3899736 167.1455141 45.5625 167.125 C45.5625 167.785 45.5625 168.445 45.5625 169.125 C50.05614887 170.48123205 54.54917947 171.83547985 59.0625 173.125 C76.05794359 177.98084103 92.74545922 183.15503716 108.5625 191.125 C109.31055908 191.49133545 110.05861816 191.8576709 110.8293457 192.23510742 C117.13846825 195.33973414 123.27307942 198.69504006 129.375 202.1875 C130.28958984 202.70376953 131.20417969 203.22003906 132.14648438 203.75195312 C136.57738098 206.28159228 140.64745031 208.82890103 144.5625 212.125 C146.54570018 213.15791676 148.54597806 214.1587499 150.5625 215.125 C151.33078125 215.61613281 152.0990625 216.10726562 152.890625 216.61328125 C157.53326134 219.24003602 162.22870029 220.32356251 167.5625 220.125 C170.07722528 218.6837877 171.93782571 216.99551109 174.05273438 215.0222168 C182.55465952 208.59532377 195.5740632 209.59908492 205.8125 209.6875 C206.53662079 209.68987671 207.26074158 209.69225342 208.00680542 209.69470215 C221.12226795 209.76208261 234.07937912 210.43392954 245.75 217.12890625 C247.93375313 218.3290292 250.17096332 219.17846016 252.5 220.0625 C260.84102248 223.34024125 268.24643448 227.9962118 275.5625 233.125 C276.63371094 233.84171875 277.70492187 234.5584375 278.80859375 235.296875 C288.34216513 241.90077287 296.5154003 249.69621695 304.6875 257.875 C305.50468506 258.6896019 305.50468506 258.6896019 306.33837891 259.5206604 C312.21969056 265.40407886 317.76046908 271.30686511 322.5625 278.125 C323.34625 279.07375 324.13 280.0225 324.9375 281 C326.5625 283.125 326.5625 283.125 326.5625 285.125 C327.2225 285.125 327.8825 285.125 328.5625 285.125 C329.86328823 286.86536494 331.07738895 288.67081891 332.25 290.5 C334.82814911 294.47212123 337.43332331 298.39783305 340.1875 302.25 C354.1579807 322.18079866 368.35419701 348.07450447 365.5625 373.125 C363.27941364 379.74762918 359.47195534 383.91680089 353.39453125 387.28515625 C346.18229211 390.5914066 338.46985233 389.6199975 331.125 387.1640625 C326.36198125 385.23271648 321.97098318 382.7538547 317.5625 380.125 C316.73492188 379.63386719 315.90734375 379.14273437 315.0546875 378.63671875 C302.55715538 370.93564009 290.81037313 361.91614313 279.140625 353.02734375 C277.22380894 351.61296584 275.24323075 350.28419812 273.234375 349.00390625 C272.35265625 348.38386719 271.4709375 347.76382812 270.5625 347.125 C270.5625 346.465 270.5625 345.805 270.5625 345.125 C269.55896484 344.83882813 269.55896484 344.83882813 268.53515625 344.546875 C264.32987699 342.53541422 261.35567031 339.56899102 258 336.375 C257.34064453 335.7665625 256.68128906 335.158125 256.00195312 334.53125 C250.13562564 329.0127751 246.42223412 323.11706804 242.9375 315.875 C239.84675541 309.58916932 236.6180045 303.39187369 233.25 297.25 C232.61940674 296.08162598 232.61940674 296.08162598 231.97607422 294.88964844 C231.37496826 293.80345215 231.37496826 293.80345215 230.76171875 292.6953125 C230.40940186 292.05352051 230.05708496 291.41172852 229.6940918 290.75048828 C228.49382341 288.81491869 228.49382341 288.81491869 225.5625 287.125 C225.76746094 287.91003906 225.97242188 288.69507813 226.18359375 289.50390625 C226.45300781 290.55449219 226.72242188 291.60507812 227 292.6875 C227.40025391 294.23630859 227.40025391 294.23630859 227.80859375 295.81640625 C228.5625 299.125 228.5625 299.125 228.953125 302.59765625 C229.64140598 306.58174422 230.98669828 309.43365713 232.875 313 C233.51435571 314.2323813 234.15238056 315.46545398 234.7890625 316.69921875 C235.37429688 317.82972656 235.95953125 318.96023438 236.5625 320.125 C241.32162138 330.02704288 244.71370541 340.28453366 247.6328125 350.86328125 C248.22004358 352.92352475 248.85495986 354.97129133 249.5546875 356.99609375 C250.81538809 360.91012929 251.69503132 364.85838011 252.5625 368.875 C252.73692627 369.67413818 252.91135254 370.47327637 253.09106445 371.29663086 C253.58560783 373.57190032 254.07481423 375.84825245 254.5625 378.125 C254.89314453 379.65060547 254.89314453 379.65060547 255.23046875 381.20703125 C256.21310148 385.8985484 256.89846576 390.53603723 257.31640625 395.3125 C257.47630528 397.22161892 257.47630528 397.22161892 258.5625 399.125 C258.65815595 400.84032435 258.690454 402.55935493 258.69189453 404.27734375 C258.69662277 405.88911499 258.69662277 405.88911499 258.70144653 407.53344727 C258.6994223 408.69803467 258.69739807 409.86262207 258.6953125 411.0625 C258.69626923 412.25351318 258.69722595 413.44452637 258.69821167 414.67163086 C258.69889315 417.19352267 258.6970411 419.71541623 258.69287109 422.23730469 C258.68752243 426.10876384 258.69281721 429.98010698 258.69921875 433.8515625 C258.69855796 436.29687526 258.69727679 438.74218794 258.6953125 441.1875 C258.69733673 442.3520874 258.69936096 443.5166748 258.70144653 444.71655273 C258.69829437 445.79106689 258.69514221 446.86558105 258.69189453 447.97265625 C258.69070114 449.3959021 258.69070114 449.3959021 258.68948364 450.84790039 C258.5625 453.125 258.5625 453.125 257.5625 455.125 C257.12001074 458.75787398 256.74919175 462.39050614 256.40039062 466.03320312 C255.83840256 471.52058256 254.87762635 476.77044566 253.5625 482.125 C253.31411377 483.14537354 253.06572754 484.16574707 252.80981445 485.21704102 C251.95260636 488.69083096 251.07232874 492.15814945 250.1875 495.625 C249.89617188 496.79675781 249.60484375 497.96851563 249.3046875 499.17578125 C247.78335792 505.12097713 246.12089225 510.70503058 243.43823242 516.23413086 C242.53364904 518.18729458 241.87532637 520.1296125 241.25 522.1875 C239.80169634 526.66695286 238.03067212 530.98417414 236.1875 535.3125 C235.90737061 535.98998291 235.62724121 536.66746582 235.33862305 537.36547852 C233.87416353 540.7460533 232.37414201 543.52604416 229.94140625 546.30859375 C227.64218259 549.03066313 226.80371976 550.63943025 225.875 554 C223.3859446 561.39691061 219.13644625 567.5986201 214.89257812 574.08642578 C213.58588558 576.08915757 212.29780915 578.10260089 211.015625 580.12109375 C203.69737971 591.61910131 203.69737971 591.61910131 201.5625 594.125 C200.9025 594.125 200.2425 594.125 199.5625 594.125 C199.5625 594.785 199.5625 595.445 199.5625 596.125 C198.40086825 597.25246611 197.2387405 598.37942536 196.07421875 599.50390625 C192.55722543 603.27535903 188.7127215 607.6376114 188.39453125 612.90625 C188.44996094 613.6384375 188.50539063 614.370625 188.5625 615.125 C193.25813383 612.28577954 196.14107885 609.40177644 199.5625 605.125 C202.70121188 603.55564406 205.10105822 603.77298897 208.5625 604.125 C211.125 606.1875 211.125 606.1875 213.5625 609.125 C214.06910156 609.69089844 214.57570313 610.25679687 215.09765625 610.83984375 C218.00433002 614.10360275 220.38952113 617.32228698 222.5625 621.125 C223.49947037 622.45870557 224.43704391 623.79198747 225.375 625.125 C241.12380081 648.74820122 245.18136371 679.08556774 240.3828125 706.76171875 C237.72612792 717.65412554 233.93608017 727.84478712 227.5625 737.125 C226.98242188 738.08792969 226.98242188 738.08792969 226.390625 739.0703125 C222.29827487 745.54519523 215.76163852 749.70688446 208.5625 752.125 C198.36860091 753.45329594 190.62334053 750.21541284 182.5625 744.125 C180.41399797 742.20863497 178.51147149 740.25958782 176.5625 738.125 C176.5625 737.465 176.5625 736.805 176.5625 736.125 C175.9025 736.125 175.2425 736.125 174.5625 736.125 C173.07892314 734.15510542 171.74835321 732.20702477 170.4375 730.125 C170.03934082 729.49924072 169.64118164 728.87348145 169.23095703 728.22875977 C165.17506553 721.72179698 161.83845082 714.90342988 158.49023438 708.01513672 C152.00976971 694.81204265 144.63796652 681.10743056 134.7421875 670.1171875 C133.03764412 667.23865397 133.01127871 665.40218282 133.5625 662.125 C135.7578125 660.25390625 135.7578125 660.25390625 138.6875 658.6875 C143.83168038 655.71383186 146.99700658 652.84686967 150.5625 648.125 C143.1388464 648.5374252 136.2726381 650.58460678 130.76953125 655.8359375 C129.30573562 657.55937811 127.92234315 659.31882796 126.5625 661.125 C119.35516757 669.56787513 108.87811194 672.98608627 98.5625 676.125 C97.63050781 676.44984375 96.69851563 676.7746875 95.73828125 677.109375 C91.16910041 678.57061364 86.51699834 679.57284572 81.83984375 680.625 C77.65144579 681.58406071 73.6353692 682.74144689 69.5625 684.125 C62.25251931 686.04192091 55.0759478 687.38597235 47.5625 688.125 C46.9025 688.455 46.2425 688.785 45.5625 689.125 C42.02864944 689.61212226 38.48924539 690.0227641 34.9453125 690.4296875 C31.59385231 691.11855576 29.91762229 691.67519943 27.5625 694.125 C27.5625 695.115 27.5625 696.105 27.5625 697.125 C29.21782623 698.14366229 30.88510138 699.14310813 32.5625 700.125 C33.64334718 703.36754153 33.53077343 704.03330336 32.59375 707.16015625 C32.35615967 707.96026123 32.11856934 708.76036621 31.8737793 709.5847168 C31.60605713 710.44363525 31.33833496 711.30255371 31.0625 712.1875 C30.78768799 713.07928955 30.51287598 713.9710791 30.22973633 714.88989258 C26.37185252 727.1722902 21.87724268 739.00253572 15.9375 750.4375 C15.57744873 751.13705811 15.21739746 751.83661621 14.84643555 752.55737305 C12.31639735 757.25766017 9.48941305 761.66154347 4.5625 764.125 C1.4265032 764.74453501 -1.30520848 764.79694372 -4.4375 764.125 C-16.52044291 755.98544432 -22.07791227 735.22506845 -26.4375 722.125 C-26.70256348 721.33109863 -26.96762695 720.53719727 -27.24072266 719.71923828 C-27.99472297 717.42320096 -28.72254056 715.12096429 -29.4375 712.8125 C-29.76754028 711.78213623 -29.76754028 711.78213623 -30.10424805 710.73095703 C-31.35317008 706.51421147 -31.57145418 703.3837711 -30.4375 699.125 C-28.71882657 697.40632657 -26.34536781 697.79579401 -24 697.625 C-20.07315085 697.41080817 -20.07315085 697.41080817 -16.4375 696.125 C-16.1075 695.135 -15.7775 694.145 -15.4375 693.125 C-17.108125 693.00125 -17.108125 693.00125 -18.8125 692.875 C-22.20683092 692.46625858 -24.88926508 691.58915443 -28 690.1875 C-33.48619021 687.8350624 -38.91901704 687.22828546 -44.82421875 686.6171875 C-48.53825916 686.11127497 -51.85189599 685.21314958 -55.4375 684.125 C-57.11577843 683.66410882 -58.79560323 683.20882814 -60.4765625 682.7578125 C-87.49984778 675.47082391 -87.49984778 675.47082391 -96.375 671.5625 C-101.8767061 669.18061927 -107.32972232 667.90266409 -113.2109375 666.80078125 C-116.4375 666.125 -116.4375 666.125 -119.515625 665.08203125 C-122.35660616 664.15149598 -124.84235034 663.74082295 -127.8125 663.5 C-128.68648437 663.42523437 -129.56046875 663.35046875 -130.4609375 663.2734375 C-131.11320313 663.22445312 -131.76546875 663.17546875 -132.4375 663.125 C-132.5921875 664.20974609 -132.5921875 664.20974609 -132.75 665.31640625 C-133.51352363 668.43557382 -134.6617458 670.39475816 -136.4375 673.0625 C-137.06785156 674.02800781 -137.69820312 674.99351562 -138.34765625 675.98828125 C-139.7649203 678.11550187 -141.18965579 680.23776 -142.62109375 682.35546875 C-147.31949755 689.39180975 -151.19070862 696.4976762 -154.68798828 704.20483398 C-156.92983551 709.13178987 -159.45011285 713.60124231 -162.4375 718.125 C-162.89125 719.053125 -163.345 719.98125 -163.8125 720.9375 C-167.21773552 727.61700045 -171.02684783 733.9055767 -176.4375 739.125 C-176.97375 739.90875 -177.51 740.6925 -178.0625 741.5 C-183.22772334 747.20893106 -191.02890816 751.52921708 -198.70703125 752.375 C-205.17602324 752.69298425 -209.81778375 751.24345526 -215.4375 748.125 C-216.489375 747.5475 -217.54125 746.97 -218.625 746.375 C-227.76622366 739.06202107 -232.92246245 727.06121219 -236.4375 716.125 C-236.69128418 715.35317383 -236.94506836 714.58134766 -237.20654297 713.78613281 C-239.75707801 704.99479202 -239.9295624 696.51276537 -239.88354492 687.43603516 C-239.87505913 684.89272316 -239.90385039 682.3516841 -239.93554688 679.80859375 C-240.04052635 655.1202973 -230.84875293 630.74900614 -214.4375 612.125 C-213.81230469 611.36058594 -213.18710938 610.59617187 -212.54296875 609.80859375 C-207.76266341 604.38714292 -207.76266341 604.38714292 -203.9296875 603.62890625 C-201.70451853 603.62541852 -199.63017419 603.7595543 -197.4375 604.125 C-200.9977422 592.36751722 -208.9087307 581.4189159 -216.03125 571.48828125 C-220.76597008 564.80422069 -224.08247463 559.78571684 -224.97265625 551.45703125 C-225.64372221 548.09042302 -227.41000421 546.55346416 -229.73828125 544.140625 C-240.96622519 530.82196046 -246.81875369 508.48898635 -249.875 491.65234375 C-250.40389903 489.05161315 -250.40389903 489.05161315 -251.40234375 486.328125 C-252.61963192 482.56142199 -253.33530877 478.83325618 -254 474.9375 C-254.19505127 473.82072876 -254.19505127 473.82072876 -254.39404297 472.68139648 C-255.27118075 467.51075307 -255.89076543 462.36574158 -256.2265625 457.12890625 C-256.32632615 455.05474483 -256.32632615 455.05474483 -257.4375 453.125 C-257.53239915 451.59347687 -257.56544506 450.05789728 -257.56689453 448.5234375 C-257.57004669 447.56904785 -257.57319885 446.6146582 -257.57644653 445.63134766 C-257.57341019 444.08133057 -257.57341019 444.08133057 -257.5703125 442.5 C-257.57126923 441.44216309 -257.57222595 440.38432617 -257.57321167 439.29443359 C-257.57389301 437.05501242 -257.57204193 434.81558927 -257.56787109 432.57617188 C-257.56252222 429.13927799 -257.56781767 425.7025148 -257.57421875 422.265625 C-257.57355796 420.09374971 -257.57227678 417.9218745 -257.5703125 415.75 C-257.57233673 414.71665527 -257.57436096 413.68331055 -257.57644653 412.61865234 C-257.57171829 411.18706787 -257.57171829 411.18706787 -257.56689453 409.7265625 C-257.56609894 408.88432129 -257.56530334 408.04208008 -257.56448364 407.17431641 C-257.4375 405.125 -257.4375 405.125 -256.4375 403.125 C-256.24303687 401.7968544 -256.09454616 400.46176082 -255.97265625 399.125 C-255.89611816 398.32562012 -255.81958008 397.52624023 -255.74072266 396.70263672 C-255.66128418 395.8520166 -255.5818457 395.00139648 -255.5 394.125 C-254.82118825 387.35068455 -254.0095125 380.75692771 -252.4375 374.125 C-252.14509464 372.81917561 -251.85350619 371.51316816 -251.5625 370.20703125 C-247.55087508 352.42951541 -242.04855441 335.31565687 -234.0480957 318.92822266 C-231.34999361 313.25781202 -229.41773527 307.3990341 -227.65429688 301.37744141 C-226.05273649 296.15583488 -223.92403574 292.3578549 -220.4375 288.125 C-219.7775 288.125 -219.1175 288.125 -218.4375 288.125 C-218.251875 287.444375 -218.06625 286.76375 -217.875 286.0625 C-216.4799785 283.21180389 -215.39454392 281.99159639 -213.125 279.875 C-209.18041114 276.13671809 -206.82087508 271.96863323 -204.4375 267.125 C-208.65878427 266.7111486 -210.69486616 266.52382022 -214.0625 269.25 C-214.84625 270.19875 -215.63 271.1475 -216.4375 272.125 C-217.283125 273.07375 -218.12875 274.0225 -219 275 C-221.08642288 277.67490113 -222.79343768 280.32159856 -224.41772461 283.29345703 C-225.46660014 285.17726461 -226.5947357 286.98687054 -227.75390625 288.8046875 C-230.44121851 293.08331402 -232.93138079 297.45360043 -235.375 301.875 C-235.808125 302.65705811 -236.24125 303.43911621 -236.6875 304.24487305 C-242.55384428 314.7835409 -242.55384428 314.7835409 -247.47265625 325.77734375 C-252.19268067 337.26209951 -266.89534182 345.05573915 -276.4375 352.125 C-277.79239502 353.14486643 -279.14665076 354.16558323 -280.5 355.1875 C-281.81165921 356.16779267 -283.12425061 357.14683864 -284.4375 358.125 C-285.85482422 359.18654297 -285.85482422 359.18654297 -287.30078125 360.26953125 C-288.29464844 361.00558594 -289.28851563 361.74164063 -290.3125 362.5 C-291.23804688 363.18835938 -292.16359375 363.87671875 -293.1171875 364.5859375 C-295.4375 366.125 -295.4375 366.125 -297.4375 366.125 C-297.4375 366.785 -297.4375 367.445 -297.4375 368.125 C-298.94921875 369.3515625 -298.94921875 369.3515625 -301.125 370.75 C-302.35089844 371.53890625 -302.35089844 371.53890625 -303.6015625 372.34375 C-304.53742188 372.9315625 -305.47328125 373.519375 -306.4375 374.125 C-307.49710938 374.7953125 -308.55671875 375.465625 -309.6484375 376.15625 C-333.57757592 391.10498915 -333.57757592 391.10498915 -347.4375 389.125 C-354.79542236 387.009431 -359.56588168 381.58558046 -363.609375 375.3046875 C-368.37341703 362.76536933 -362.01589936 346.93153523 -357.03515625 335.5078125 C-350.82547736 322.35969044 -343.78190712 310.02556858 -335.4375 298.125 C-334.76332031 297.14402344 -334.08914063 296.16304688 -333.39453125 295.15234375 C-330.54104884 291.02118265 -327.62351214 287.00795229 -324.4375 283.125 C-323.24660914 281.60682042 -322.05944631 280.08571279 -320.875 278.5625 C-320.29621094 277.81871094 -319.71742188 277.07492187 -319.12109375 276.30859375 C-317.99491972 274.84796432 -316.90341797 273.35996358 -315.84765625 271.84765625 C-315.14962891 270.99494141 -315.14962891 270.99494141 -314.4375 270.125 C-313.7775 270.125 -313.1175 270.125 -312.4375 270.125 C-312.1075 269.135 -311.7775 268.145 -311.4375 267.125 C-310.7775 267.125 -310.1175 267.125 -309.4375 267.125 C-309.1075 266.135 -308.7775 265.145 -308.4375 264.125 C-307.7775 264.125 -307.1175 264.125 -306.4375 264.125 C-306.19 263.568125 -305.9425 263.01125 -305.6875 262.4375 C-302.9200147 257.3176522 -299.04173984 253.76456358 -294.66796875 250.0390625 C-291.48608879 247.30855255 -288.40868726 244.46440015 -285.3203125 241.62890625 C-283.4375 240.125 -283.4375 240.125 -281.4375 240.125 C-281.1075 239.135 -280.7775 238.145 -280.4375 237.125 C-278.83274082 236.16897325 -277.21915045 235.22547888 -275.5703125 234.34765625 C-273.20092155 232.98937902 -271.07260378 231.43350477 -268.875 229.8125 C-250.1397251 216.58760007 -227.55845951 209.49203473 -204.75 209.6875 C-203.70524002 209.68956955 -203.70524002 209.68956955 -202.63937378 209.69168091 C-174.7688934 209.7936066 -174.7688934 209.7936066 -169.4375 215.125 C-167.56428052 215.28553815 -167.56428052 215.28553815 -165.4375 215.25 C-164.715625 215.25257813 -163.99375 215.25515625 -163.25 215.2578125 C-161.41660585 215.32195276 -161.41660585 215.32195276 -160.4375 214.125 C-159.02126784 214.07052953 -157.60441809 214.03199492 -156.1875 214 C-148.99428661 213.33585388 -143.54858105 209.74431907 -137.4375 206.125 C-136.25405458 205.44538474 -135.06914261 204.76831715 -133.8828125 204.09375 C-131.51171866 202.74536658 -129.14313363 201.39282511 -126.77734375 200.03515625 C-113.97721994 192.71438368 -101.00629995 186.57511698 -87.16796875 181.5 C-83.33508759 180.08725218 -79.54129162 178.60154236 -75.7578125 177.0625 C-74.07103256 176.38097275 -72.37731345 175.71654286 -70.6796875 175.0625 C-69.77476562 174.711875 -68.86984375 174.36125 -67.9375 174 C-67.1228125 173.68804687 -66.308125 173.37609375 -65.46875 173.0546875 C-63.272126 172.19208146 -63.272126 172.19208146 -61.4375 170.125 C-62.55125 169.526875 -63.665 168.92875 -64.8125 168.3125 C-67.72562528 166.74804383 -68.50354999 166.02592502 -70.4375 163.125 C-71.12512778 160.33404017 -71.74222251 157.56458599 -72.3125 154.75 C-74.37080693 145.0687998 -77.03735698 135.75676444 -80.5625 126.5 C-82.32316115 121.8049036 -83.2926179 117.19310059 -84.04296875 112.2421875 C-84.22687092 110.14709471 -84.22687092 110.14709471 -85.4375 109.125 C-86.69978853 102.72403333 -86.62114889 96.31703125 -86.625 89.8125 C-86.63724609 88.73548828 -86.64949219 87.65847656 -86.66210938 86.54882812 C-86.6743377 79.8191706 -86.05842755 73.65510657 -84.4375 67.125 C-84.17710937 66.03832031 -83.91671875 64.95164062 -83.6484375 63.83203125 C-81.83408625 57.5496281 -79.48387012 51.82808965 -76.4375 46.0625 C-76.10540527 45.43126221 -75.77331055 44.80002441 -75.43115234 44.1496582 C-73.47168659 40.58073445 -71.34190309 37.94156832 -68.4375 35.125 C-67.42831152 33.46388098 -66.42830645 31.79714842 -65.4375 30.125 C-53.77380491 16.24700518 -36.36625294 5.2161643 -18.4375 2.125 C-18.1075 1.795 -17.7775 1.465 -17.4375 1.125 C-11.59831293 0.19230645 -5.90473534 -0.02859436 0 0 Z " fill="#030303" transform="translate(378.4375,0.875)"/>
<path d="M0 0 C37.95435459 -0.9569842 37.95435459 -0.9569842 50.20019531 9.86767578 C56.16307918 16.18205596 60.31268879 24.3280242 60.30091858 33.13214111 C60.30298058 34.32678482 60.30298058 34.32678482 60.30508423 35.54556274 C60.29969131 36.84244522 60.29969131 36.84244522 60.29418945 38.16552734 C60.29433548 39.08294708 60.29448151 40.00036682 60.29463196 40.94558716 C60.29393572 43.9756304 60.28615681 47.00561204 60.27832031 50.03564453 C60.27645511 52.13743049 60.27503169 54.23921687 60.27403259 56.34100342 C60.2702155 61.87135011 60.26039208 67.40167052 60.24932861 72.93200684 C60.23909715 78.57592412 60.23453125 84.21984565 60.22949219 89.86376953 C60.21876911 100.9366996 60.20117881 112.00960327 60.18066406 123.08251953 C48.63066406 123.08251953 37.08066406 123.08251953 25.18066406 123.08251953 C25.17655518 120.55362061 25.17244629 118.02472168 25.16821289 115.41918945 C25.1510321 107.07303969 25.10655869 98.72719717 25.04857349 90.38123608 C25.01425093 85.31993343 24.98918535 80.25893432 24.98510742 75.19750977 C24.98083573 70.31485348 24.95246735 65.4328825 24.90723228 60.55043983 C24.89422102 58.68572287 24.88996239 56.82092403 24.89451027 54.95616722 C24.8993907 52.34803214 24.87344039 49.74191993 24.84008789 47.1340332 C24.85302635 45.97201889 24.85302635 45.97201889 24.8662262 44.78652954 C24.8706251 42.38469392 24.8706251 42.38469392 24.18066406 39.08251953 C20.71948771 36.19342629 18.02554965 35.70535417 13.58300781 35.71923828 C12.0100293 35.72020508 12.0100293 35.72020508 10.40527344 35.72119141 C8.7781543 35.74536133 8.7781543 35.74536133 7.11816406 35.77001953 C5.48524414 35.76518555 5.48524414 35.76518555 3.81933594 35.76025391 C-2.81324143 35.63439805 -2.81324143 35.63439805 -8.81933594 38.08251953 C-10.31661563 41.07707892 -9.96666972 44.15048486 -9.96459961 47.43457031 C-9.96795822 48.1925441 -9.97131683 48.95051788 -9.97477722 49.73146057 C-9.98430451 52.24693425 -9.98623167 54.76234141 -9.98730469 57.27783203 C-9.99051764 59.02700834 -9.99388174 60.77618437 -9.99739075 62.52536011 C-10.00338758 66.19904197 -10.00523024 69.8727003 -10.00463867 73.54638672 C-10.00453738 78.24036394 -10.01815244 82.93418876 -10.03541088 87.62812996 C-10.04656735 91.24509363 -10.04855671 94.86202098 -10.04802895 98.47900009 C-10.049205 100.20844927 -10.05360563 101.93789951 -10.06136131 103.6673317 C-10.07122847 106.0963609 -10.06825615 108.52506643 -10.06225586 110.95410156 C-10.06787537 111.66090561 -10.07349487 112.36770966 -10.07928467 113.09593201 C-9.94799729 134.15534123 4.23679338 148.29449679 17.78271484 162.59179688 C20.05597281 165.01591723 22.22141721 167.52806208 24.38769531 170.04736328 C26.24213855 172.15229776 28.15324064 174.19870719 30.0715332 176.24536133 C47.90734848 195.37376017 60.30928537 215.23064465 60.34179688 242.23364258 C60.34924423 243.7278196 60.34924423 243.7278196 60.35684204 245.25218201 C60.37139246 248.53287458 60.37825406 251.8135188 60.38378906 255.09423828 C60.38954671 257.38719177 60.39530436 259.68014526 60.40106201 261.97309875 C60.411552 266.77707136 60.41740765 271.58102733 60.42089844 276.38500977 C60.42637654 282.51673054 60.45039869 288.64822853 60.47887039 294.77987957 C60.49756779 299.51647061 60.50270617 304.25300875 60.50423431 308.98963356 C60.50724572 311.24888132 60.51522266 313.50812848 60.52841949 315.76733971 C60.69584572 346.63447692 60.69584572 346.63447692 51.18066406 357.08251953 C39.24353666 367.33361199 23.63282274 368.46031729 8.55566406 368.39501953 C7.5613739 368.39228531 7.5613739 368.39228531 6.54699707 368.38949585 C-7.72016266 368.32337638 -23.45744996 368.19494684 -34.83886719 358.33251953 C-47.49356502 345.11835085 -46.10305804 326.19339188 -46.01464844 309.22705078 C-46.01091267 307.11285029 -46.00806836 304.99864804 -46.006073 302.88444519 C-45.99848094 297.35251992 -45.97887099 291.82070169 -45.95666504 286.28881836 C-45.93611068 280.6308741 -45.92705087 274.97291234 -45.91699219 269.31494141 C-45.89562049 258.23741314 -45.86047496 247.15999204 -45.81933594 236.08251953 C-34.26933594 236.08251953 -22.71933594 236.08251953 -10.81933594 236.08251953 C-10.80999023 238.84852539 -10.80064453 241.61453125 -10.79101562 244.46435547 C-10.75726906 253.59677363 -10.70173316 262.72896526 -10.6354332 271.86120224 C-10.59590103 277.39885403 -10.56374069 282.93634544 -10.54833984 288.47412109 C-10.53321112 293.81704827 -10.49883286 299.15953468 -10.45102692 304.50226593 C-10.43617403 306.54199648 -10.42829269 308.58178995 -10.42745209 310.6215744 C-10.42509244 313.4758978 -10.3980938 316.32899312 -10.36523438 319.18310547 C-10.37026474 320.02899231 -10.3752951 320.87487915 -10.38047791 321.74639893 C-10.3123434 325.56429842 -10.27250015 327.46976484 -7.95207214 330.6073761 C-5.19674541 332.51314491 -3.47086653 332.58482696 -0.13574219 332.57861328 C0.95673828 332.57925781 2.04921875 332.57990234 3.17480469 332.58056641 C4.31111328 332.56058594 5.44742188 332.54060547 6.61816406 332.52001953 C7.75060547 332.52710938 8.88304687 332.53419922 10.04980469 332.54150391 C17.69369747 332.66515252 17.69369747 332.66515252 24.18066406 329.08251953 C24.687053 325.91890787 24.85444462 323.28823005 24.81176758 320.11987305 C24.81892288 319.20236771 24.82607819 318.28486237 24.83345032 317.33955383 C24.85040043 314.29634241 24.83088404 311.25459239 24.80957031 308.21142578 C24.81039907 306.09211607 24.8128587 303.97280642 24.81687927 301.85350037 C24.81974243 297.40205631 24.80499664 292.95111388 24.77758789 288.49975586 C24.74369133 282.82061408 24.74945619 277.1423805 24.76825047 271.46319675 C24.77887864 267.07995689 24.7698269 262.69692421 24.75486565 258.31370354 C24.74971331 256.22193965 24.75012947 254.13015383 24.7564106 252.03839302 C24.78276221 237.97455882 24.31675629 225.77617894 15.61816406 214.08251953 C15.18979248 213.50421387 14.7614209 212.9259082 14.32006836 212.33007812 C10.43124536 207.18482289 6.13997444 202.43297548 1.70800781 197.75439453 C-0.39783344 195.5281265 -2.4387568 193.27343078 -4.44433594 190.95751953 C-6.99868104 188.01394089 -9.58612432 185.10353381 -12.19433594 182.20751953 C-12.95488281 181.36060547 -13.71542969 180.51369141 -14.49902344 179.64111328 C-16.01063619 177.97426757 -17.53611345 176.31985834 -19.07714844 174.68017578 C-35.08360815 157.47462588 -45.9789858 136.70278988 -45.96459961 112.80493164 C-45.96795822 111.99588379 -45.97131683 111.18683594 -45.97477722 110.35327148 C-45.9842445 107.68878627 -45.98622861 105.02436425 -45.98730469 102.35986328 C-45.99052163 100.49386062 -45.99388602 98.62785822 -45.99739075 96.76185608 C-46.0033725 92.85059017 -46.00523177 88.93934633 -46.00463867 85.02807617 C-46.00453743 80.04773351 -46.01815427 75.06753463 -46.03541088 70.08722591 C-46.04660481 66.23073189 -46.04855558 62.37427173 -46.04802895 58.51776314 C-46.04919931 56.68359446 -46.05356727 54.84942463 -46.06136131 53.01527214 C-46.17755215 22.83283071 -46.17755215 22.83283071 -36.50683594 11.33251953 C-25.27981166 1.93315037 -14.28676014 0.41816115 0 0 Z " fill="#FCFCFC" transform="translate(371.8193359375,241.91748046875)"/>
<path d="M0 0 C16.56119864 13.84151556 29.29144071 32.66118625 32.15527344 54.42041016 C33.58654448 73.66305412 30.38808743 90.24224666 24.39135742 108.49316406 C20.71045968 119.70064812 17.24631219 130.89977391 16.40136719 142.72900391 C10.61808315 141.8017263 4.84956446 140.81992989 -0.90722656 139.74072266 C-1.8532373 139.56444336 -2.79924805 139.38816406 -3.77392578 139.20654297 C-5.65525494 138.85464883 -7.53583659 138.49872701 -9.41552734 138.13818359 C-10.31255371 137.97092773 -11.20958008 137.80367187 -12.13378906 137.63134766 C-12.92148682 137.48173584 -13.70918457 137.33212402 -14.52075195 137.17797852 C-22.90028795 135.95564436 -31.27980236 135.55011767 -39.73925781 135.45556641 C-41.28955437 135.4370462 -41.28955437 135.4370462 -42.87117004 135.41815186 C-46.19702115 135.38607355 -49.52265447 135.36711681 -52.84863281 135.35400391 C-53.98203094 135.3491095 -55.11542908 135.34421509 -56.28317261 135.33917236 C-74.92960855 135.30589193 -92.36457503 136.75722894 -110.59863281 140.72900391 C-112.53407171 141.12079316 -114.47021697 141.50911799 -116.40722656 141.89306641 C-117.21861084 142.05500488 -118.02999512 142.21694336 -118.8659668 142.38378906 C-119.72363647 142.55467041 -119.72363647 142.55467041 -120.59863281 142.72900391 C-121.01529948 141.06233724 -121.43196615 139.39567057 -121.84863281 137.72900391 C-122.12707031 136.62427734 -122.40550781 135.51955078 -122.69238281 134.38134766 C-123.29292159 131.96107284 -123.87649314 129.53652002 -124.44238281 127.10791016 C-126.29326618 119.31345734 -128.54155826 111.80107263 -131.16113281 104.22900391 C-139.52734973 79.68456809 -140.97488305 54.17538319 -129.47363281 30.37744141 C-118.43700787 8.56427593 -100.64514095 -6.1310696 -77.89941406 -14.65771484 C-51.57805073 -22.49636537 -21.50331598 -17.09625275 0 0 Z " fill="#FDFDFD" transform="translate(431.5986328125,21.27099609375)"/>
<path d="M0 0 C5.5403956 1.84679853 10.25003286 4.04247019 15.375 6.75 C16.18710937 7.16765625 16.99921875 7.5853125 17.8359375 8.015625 C31.62573594 15.2641088 31.62573594 15.2641088 34.69921875 21.3828125 C35.02535156 22.61773437 35.35148437 23.85265625 35.6875 25.125 C35.87771729 25.81311768 36.06793457 26.50123535 36.26391602 27.21020508 C36.87668204 29.46605835 37.44213569 31.72998729 38 34 C38.40069672 35.58472268 38.80174448 37.16935663 39.203125 38.75390625 C39.82845969 41.24182902 40.44804506 43.73077181 41.05541992 46.22314453 C42.55599078 52.36189651 44.23231782 58.43318879 46 64.5 C48.21807285 72.12141375 50.22334847 79.76984697 52.10546875 87.48046875 C53.81702852 94.42482271 55.77297538 101.28479585 57.77172852 108.15112305 C59.46446207 114.00883644 60.99889722 119.88765793 62.4375 125.8125 C64.52383711 134.39051909 66.95905862 142.84313691 69.46875 151.3059082 C71.88311776 159.48578083 74.03504283 167.700802 76 176 C76.32555437 164.68573366 76.22205752 153.5493666 74.75 142.3125 C74.58600708 141.03620728 74.58600708 141.03620728 74.41870117 139.73413086 C73.81427341 135.47376841 73.09033863 131.34765272 72.00683594 127.17797852 C68.21380866 112.37296392 68.52842474 97.57981729 68.7253418 82.41809082 C68.76696181 78.86411275 68.78467612 75.31001316 68.8046875 71.75585938 C68.84702413 64.83695168 68.9148871 57.91851081 69 51 C83.85923942 65.6126321 93.66157894 85.73823818 101 105 C101.37680908 105.97767334 101.37680908 105.97767334 101.76123047 106.97509766 C105.81604953 117.67633075 108.11075497 128.73807707 110 140 C110.26586914 141.57334106 110.26586914 141.57334106 110.53710938 143.1784668 C111.08462359 147.69863557 111.18090139 152.12713054 111.203125 156.67578125 C111.20882507 157.59981247 111.21452515 158.52384369 111.22039795 159.47587585 C111.22981245 161.42995067 111.23636775 163.3840411 111.24023438 165.33813477 C111.24984548 168.26543643 111.28086332 171.19200617 111.3125 174.11914062 C111.4004138 189.88367879 109.77114992 204.90472314 105 220 C104.80567383 220.63309082 104.61134766 221.26618164 104.41113281 221.91845703 C97.33354056 244.84922118 87.15470354 267.8925301 71 286 C70.34 286 69.68 286 69 286 C68.78337708 285.12098022 68.56675415 284.24196045 68.34356689 283.33630371 C66.28481842 274.98245035 64.22581032 266.62866103 62.16652298 258.27494049 C61.10827193 253.98199332 60.05011528 249.68902294 58.9921875 245.39599609 C57.96795369 241.2397139 56.9434548 237.08349713 55.9187851 232.92732239 C55.53124633 231.3552322 55.14379721 229.7831199 54.75644684 228.21098328 C52.89022691 220.63680995 51.01844223 213.06425277 49.12011719 205.49804688 C46.28211694 194.17722455 43.52282176 182.83691752 40.75 171.5 C40.1901404 169.21223072 39.63024482 166.92447024 39.0703125 164.63671875 C37.7131275 159.09124711 36.35638444 153.5456675 35 148 C35.01143854 148.88145597 35.02287708 149.76291193 35.03466225 150.67107868 C35.30712815 172.14698473 35.47954743 193.62167917 35.54146767 215.09926319 C35.57381032 225.48609697 35.63964936 235.87067598 35.78515625 246.2565918 C35.91194025 255.31224402 35.97504997 264.36575521 35.96262586 273.42232531 C35.95824936 278.21620805 35.98511604 283.00520112 36.08833694 287.79807472 C36.68481361 316.90462169 36.68481361 316.90462169 32.26714325 323.64327621 C28.18347695 327.58911476 23.6906599 329.64086977 18.30262375 331.25681114 C14.62799099 332.44282606 11.37155153 334.33433307 8 336.1875 C2.30913349 339 2.30913349 339 0 339 C0 227.13 0 115.26 0 0 Z " fill="#FDFDFD" transform="translate(449,257)"/>
<path d="M0 0 C0 37.95 0 75.9 0 115 C-11.55 115 -23.1 115 -35 115 C-35.33 98.83 -35.66 82.66 -36 66 C-50.95700163 82.45270179 -62.7078585 100.34438466 -69.875 121.5 C-70.13692139 122.26844238 -70.39884277 123.03688477 -70.66870117 123.82861328 C-73.51685019 132.77419522 -75.04567218 141.71694283 -77 151 C-53.24 151 -29.48 151 -5 151 C-5 162.22 -5 173.44 -5 185 C-28.76 185 -52.52 185 -77 185 C-69.88519572 220.57402139 -59.82299251 245.53000833 -36 272 C-35.67 255.17 -35.34 238.34 -35 221 C-23.45 221 -11.9 221 0 221 C0 259.94 0 298.88 0 339 C-5.90252874 337.03249042 -10.9688572 335.24450013 -16.3125 332.3125 C-16.95276123 331.96509766 -17.59302246 331.61769531 -18.25268555 331.25976562 C-32.1952615 323.57256368 -44.39574153 313.84104865 -56 303 C-57.37091797 301.74509766 -57.37091797 301.74509766 -58.76953125 300.46484375 C-78.12001594 282.2869172 -90.95935068 259.29509851 -101 235 C-101.47179687 233.89011719 -101.94359375 232.78023437 -102.4296875 231.63671875 C-119.54952396 188.09278689 -115.85923436 136.96087808 -97.95556641 94.52441406 C-95.8782395 89.87404606 -93.52651556 85.4195924 -91 81 C-90.64969727 80.3723877 -90.29939453 79.74477539 -89.93847656 79.09814453 C-84.7124015 69.77995409 -78.77928089 61.24872929 -72 53 C-71.51063965 52.4023584 -71.0212793 51.8047168 -70.51708984 51.18896484 C-64.76602571 44.20983744 -59.011516 37.74454801 -52 32 C-50.62327175 30.73103913 -49.2483812 29.46008258 -47.875 28.1875 C-36.69038936 18.29855124 -24.17267333 10.90635765 -11 4 C-10.27006836 3.61166992 -9.54013672 3.22333984 -8.78808594 2.82324219 C-8.08200195 2.45618164 -7.37591797 2.08912109 -6.6484375 1.7109375 C-6.01856934 1.3814209 -5.38870117 1.0519043 -4.73974609 0.71240234 C-3 0 -3 0 0 0 Z " fill="#FCFCFC" transform="translate(310,257)"/>
<path d="M0 0 C0.67180298 -0.00328308 1.34360596 -0.00656616 2.0357666 -0.00994873 C11.92287526 -0.02563128 21.38652185 0.25730966 30.5625 4.3125 C31.5525 5.3025 31.5525 5.3025 32.5625 6.3125 C30.77140225 7.95895584 28.97960565 9.60464178 27.1875 11.25 C26.64456299 11.74927002 26.10162598 12.24854004 25.54223633 12.76293945 C22.14488053 15.88135968 18.70977003 18.95071116 15.25 22 C10.97717981 25.84553817 7.24430722 29.90802401 3.5625 34.3125 C2.75296875 35.23417969 1.9434375 36.15585938 1.109375 37.10546875 C-17.27322961 58.13230691 -33.82276635 83.66233922 -43.3125 110 C-46.82552492 118.43933574 -53.30976608 122.982548 -60.4375 128.3125 C-62.00180408 129.50845826 -63.56558424 130.70510203 -65.12890625 131.90234375 C-69.34546937 135.10978278 -73.59685165 138.26746608 -77.86181641 141.41015625 C-80.39883162 143.28394038 -82.92515837 145.1713132 -85.44921875 147.0625 C-124.80797218 176.46783412 -124.80797218 176.46783412 -142.4375 174.3125 C-147.55922599 172.90268692 -150.52727932 170.66248964 -153.375 166.1875 C-158.15262782 157.60396527 -157.30063858 147.72266494 -155.125 138.3125 C-149.96862367 120.99143302 -140.73506587 105.04494988 -130.4375 90.3125 C-130.0161377 89.70116211 -129.59477539 89.08982422 -129.16064453 88.45996094 C-119.84638851 74.96683721 -109.80567589 62.14227321 -98.4375 50.3125 C-97.87015137 49.71791992 -97.30280273 49.12333984 -96.71826172 48.51074219 C-88.20487347 39.6333774 -79.45025891 31.47507825 -69.4375 24.3125 C-68.88803711 23.91869141 -68.33857422 23.52488281 -67.77246094 23.11914062 C-47.44403942 8.79929679 -24.9369405 0.09886627 0 0 Z " fill="#FDFDFD" transform="translate(173.4375,212.6875)"/>
<path d="M0 0 C1.75183594 0.51046875 1.75183594 0.51046875 3.5390625 1.03125 C33.0316295 10.06830987 59.54848581 30.32955009 79 54 C79.79148437 54.90363281 80.58296875 55.80726563 81.3984375 56.73828125 C103.66438199 82.22173007 130.46880173 117.13587099 130.43359375 152.2734375 C129.72440435 158.3686329 127.45751222 163.66296108 123 168 C116.38631709 171.82089802 109.2335454 172.12785573 101.96484375 170.19140625 C93.13292246 167.09003899 85.62571515 162.29437433 78 157 C77.35047363 156.55237305 76.70094727 156.10474609 76.03173828 155.64355469 C70.98001986 152.15248032 65.98192549 148.58977494 61 145 C60.22962402 144.44650879 59.45924805 143.89301758 58.66552734 143.32275391 C49.82903801 136.95589876 41.13246567 130.44255427 32.6875 123.5625 C31.65689453 122.73032959 31.65689453 122.73032959 30.60546875 121.88134766 C22.12174722 114.86839035 17.79473858 108.05405887 13.4375 97.9375 C4.51804274 78.00804393 -6.61839746 60.21903705 -20 43 C-20.76570312 42.00097656 -21.53140625 41.00195312 -22.3203125 39.97265625 C-32.0298003 27.69735324 -43.07109684 16.29530776 -54.9375 6.1015625 C-57 4 -57 4 -57 1 C-55.50279178 0.51218011 -54.00202636 0.03527637 -52.5 -0.4375 C-51.6646875 -0.70433594 -50.829375 -0.97117188 -49.96875 -1.24609375 C-34.57347609 -5.15568304 -15.0741963 -5.01126097 0 0 Z " fill="#FDFDFD" transform="translate(611,216)"/>
<path d="M0 0 C3.6342199 0.67933362 6.39830153 2.22031183 9.5859375 4.0625 C10.67600098 4.6908374 11.76606445 5.3191748 12.88916016 5.96655273 C14.05130465 6.64402917 15.21324801 7.32185072 16.375 8 C17.55385605 8.68370556 18.73272978 9.36738064 19.91162109 10.05102539 C28.09168007 14.81093137 36.1401802 19.72677545 44 25 C36.76589407 42.11791346 23.50507482 57.1001157 11.1015625 70.67578125 C9.26615163 72.70565015 7.50618556 74.7770936 5.75 76.875 C-20.92591309 107.34427688 -59.63590373 129.71006739 -97.72070312 142.23876953 C-99.78986952 142.92982146 -101.84112224 143.65537357 -103.890625 144.40234375 C-118.27398484 149.52369157 -133.07289843 151.89382086 -148.1875 153.75 C-149.22632324 153.87777832 -150.26514648 154.00555664 -151.33544922 154.13720703 C-157.26365567 154.81868719 -163.03665039 155.06106292 -169 155 C-169.02526648 147.47030348 -169.04283141 139.9406178 -169.05493164 132.41088867 C-169.0599737 129.84708243 -169.06680714 127.28327909 -169.07543945 124.71948242 C-169.08751064 121.04344979 -169.09322942 117.36745502 -169.09765625 113.69140625 C-169.10281754 112.53725723 -169.10797882 111.38310822 -169.11329651 110.19398499 C-169.11337204 109.13296066 -169.11344757 108.07193634 -169.11352539 106.97875977 C-169.115746 106.03944107 -169.11796661 105.10012238 -169.12025452 104.13233948 C-169 102 -169 102 -168 101 C-165.87635816 100.88724026 -163.75071798 100.81239005 -161.625 100.75 C-134.18473571 99.30344321 -105.79547531 91.46247208 -81.78613281 77.99316406 C-79.90347676 76.94632907 -77.99829834 75.95235798 -76.0859375 74.9609375 C-62.51614478 67.79575698 -50.40361822 58.48850446 -39.19140625 48.03515625 C-36.99390202 45.99433682 -34.72332456 44.06579444 -32.4375 42.125 C-27.32194968 37.58584971 -23.21748799 32.36082854 -19 27 C-18.03126953 25.84757813 -18.03126953 25.84757813 -17.04296875 24.671875 C-10.60268081 16.95926949 -5.35291654 8.48201114 0 0 Z " fill="#FCFCFC" transform="translate(556,532)"/>
<path d="M0 0 C4.25579374 1.41859791 5.3524103 4.55463983 7.5 8.25 C12.29758539 16.22186719 17.81688272 23.07644722 24 30 C25.125 31.33333333 26.25 32.66666667 27.375 34 C37.55920484 45.45723044 48.55249536 55.07624812 61 64 C61.64759277 64.46567383 62.29518555 64.93134766 62.96240234 65.41113281 C71.63478351 71.58044601 80.61303428 76.64923846 90.24267578 81.16992188 C91.74345854 81.87882176 93.2307138 82.6162423 94.71484375 83.359375 C109.5708949 90.58791174 125.83640418 94.89429515 142 98 C143.06347656 98.21398437 144.12695312 98.42796875 145.22265625 98.6484375 C151.74063204 99.85904404 158.22122107 100.3618882 164.83447266 100.65893555 C169.90074924 100.90074924 169.90074924 100.90074924 171 102 C171.09346915 103.65738443 171.11744977 105.31874644 171.11352539 106.97875977 C171.11344986 108.03978409 171.11337433 109.10080841 171.11329651 110.19398499 C171.10813522 111.348134 171.10297394 112.50228302 171.09765625 113.69140625 C171.09553383 115.4538694 171.09553383 115.4538694 171.09336853 117.25193787 C171.08774992 121.02215064 171.07519426 124.79230504 171.0625 128.5625 C171.0574874 131.11132727 171.05292408 133.66015547 171.04882812 136.20898438 C171.03777444 142.47267633 171.02101821 148.73633399 171 155 C151.21597987 154.03261911 151.21597987 154.03261911 142.6875 152.75 C141.81907471 152.62069092 140.95064941 152.49138184 140.0559082 152.3581543 C103.14070059 146.5794572 67.55200416 132.5583406 37 111 C35.70642578 110.10087891 35.70642578 110.10087891 34.38671875 109.18359375 C31.55120516 107.17142929 28.77113218 105.09999861 26 103 C25.44957031 102.58782227 24.89914063 102.17564453 24.33203125 101.75097656 C6.37538353 88.18439227 -11.09118419 71.51166764 -24 53 C-24.53302734 52.24170898 -25.06605469 51.48341797 -25.61523438 50.70214844 C-30.49336816 43.73455646 -35.29106031 36.71498133 -39.8828125 29.5546875 C-40.29160645 28.91772949 -40.70040039 28.28077148 -41.12158203 27.62451172 C-42 26 -42 26 -42 24 C-40.95585937 23.42894531 -39.91171875 22.85789062 -38.8359375 22.26953125 C-27.06774416 15.79892126 -15.49074903 9.03366434 -3.9609375 2.14819336 C-2.66479295 1.38925812 -1.34342053 0.67171026 0 0 Z " fill="#FCFCFC" transform="translate(200,532)"/>
<path d="M0 0 C4.11450637 1.50987088 7.82229661 3.51922255 11.5859375 5.73828125 C12.20594635 6.10092575 12.8259552 6.46357025 13.4647522 6.83720398 C14.77176888 7.6029055 16.07777196 8.37033952 17.3828125 9.1394043 C19.35904381 10.30310423 21.33939452 11.45953471 23.3203125 12.61523438 C29.39444034 16.17405546 35.37828142 19.74549697 41 24 C39.53029357 28.82553612 37.57644247 33.37239301 35.57275391 37.99194336 C30.35167912 50.11181371 25.9602751 62.13310808 23 75 C22.79117188 75.89041992 22.58234375 76.78083984 22.3671875 77.69824219 C16.59683021 103.52789529 16.05196924 134.1188125 22 160 C22.25740967 161.19399414 22.25740967 161.19399414 22.52001953 162.41210938 C25.8423402 177.6728138 30.35255101 192.96209499 37.34350586 206.96801758 C38.14706728 209.45520304 38.03587645 210.61037888 37 213 C34.45610476 214.65429355 32.00062285 216.05672178 29.3125 217.4375 C27.68050611 218.30524391 26.05038371 219.17651418 24.421875 220.05078125 C23.54982422 220.51822754 22.67777344 220.98567383 21.77929688 221.46728516 C15.80855216 224.76000611 9.99691199 228.33686208 4.17504883 231.88452148 C3.28325928 232.42020752 2.39146973 232.95589355 1.47265625 233.5078125 C0.28555054 234.22928467 0.28555054 234.22928467 -0.92553711 234.96533203 C-3 236 -3 236 -6 236 C-21.10726826 201.50040806 -31.22630689 166.75428242 -31.13037109 128.88916016 C-31.12505619 126.40130389 -31.13031818 123.91363172 -31.13671875 121.42578125 C-31.14526433 106.78592602 -30.64001028 92.42342461 -27.875 78 C-27.65690674 76.85136475 -27.43881348 75.70272949 -27.21411133 74.51928711 C-15.5639666 15.5639666 -15.5639666 15.5639666 0 0 Z " fill="#FDFDFD" transform="translate(155,305)"/>
<path d="M0 0 C3 1 3 1 4.20751953 2.828125 C4.78928955 4.02695312 4.78928955 4.02695312 5.3828125 5.25 C5.82351074 6.15588867 6.26420898 7.06177734 6.71826172 7.99511719 C7.18248535 8.98672852 7.64670898 9.97833984 8.125 11 C8.60855957 12.02512695 9.09211914 13.05025391 9.59033203 14.10644531 C19.51947951 35.60710665 26.87731637 58.32871849 30.63500977 81.73681641 C30.90892851 83.43529582 31.20790874 85.12976455 31.51928711 86.82177734 C33.21437617 96.92321634 33.27209175 106.86658158 33.20581055 117.0859375 C33.18753216 119.99488125 33.18530185 122.90350464 33.18554688 125.8125 C33.15957405 140.62695579 32.49624461 154.9084348 29.6875 169.5 C29.46239746 170.68416504 29.23729492 171.86833008 29.00537109 173.08837891 C27.42192705 181.23453081 25.59433366 189.11110784 23 197 C22.4916434 198.62222543 21.98388114 200.24463717 21.4765625 201.8671875 C17.73709642 213.62519124 13.24752926 224.83707412 8 236 C4.2352939 235.42296172 1.549223 234.37547706 -1.703125 232.41015625 C-2.59370605 231.87737061 -3.48428711 231.34458496 -4.40185547 230.7956543 C-5.34174316 230.22371338 -6.28163086 229.65177246 -7.25 229.0625 C-9.21601574 227.8825957 -11.18216325 226.70291094 -13.1484375 225.5234375 C-14.12780273 224.93272461 -15.10716797 224.34201172 -16.11621094 223.73339844 C-20.35137127 221.18771284 -24.61201982 218.68621828 -28.875 216.1875 C-30.26831731 215.36863955 -31.66155595 214.54964519 -33.0546875 213.73046875 C-34.02664063 213.15941406 -34.99859375 212.58835937 -36 212 C-34.52172253 207.37153406 -32.95976668 202.80432657 -31.1328125 198.30078125 C-27.48557962 189.2895463 -24.32765153 180.36969132 -22.1875 170.875 C-22.00525879 170.06716064 -21.82301758 169.25932129 -21.63525391 168.42700195 C-21.04092329 165.6254315 -20.51355107 162.81757365 -20 160 C-19.87505157 159.33780457 -19.75010315 158.67560913 -19.62136841 157.99334717 C-17.31001735 145.56558041 -16.46889304 133.50452184 -16.5625 120.875 C-16.56587372 119.98402618 -16.56924744 119.09305237 -16.57272339 118.17507935 C-16.7434457 86.90426875 -23.12626919 55.67218151 -38.1171875 27.953125 C-39 26 -39 26 -39 23 C-38.20940186 22.55197021 -37.41880371 22.10394043 -36.60424805 21.64233398 C-33.61531531 19.94669155 -30.62787971 18.24846578 -27.64135742 16.54858398 C-26.35905236 15.81938614 -25.07619231 15.0911632 -23.79272461 14.36401367 C-21.92667763 13.30656272 -20.06247239 12.24595827 -18.19921875 11.18359375 C-17.58819305 10.83597992 -16.97716736 10.48836609 -16.34762573 10.13021851 C-11.4848333 7.3384695 -6.80863883 4.30798903 -2.18286133 1.13696289 C-1.46251709 0.76176514 -0.74217285 0.38656738 0 0 Z " fill="#FDFDFD" transform="translate(601,305)"/>
<path d="M0 0 C0 15.84 0 31.68 0 48 C-6.93 48.66 -13.86 49.32 -21 50 C-63.67100254 56.49341343 -102.21394208 74.66401435 -133.52050781 104.58789062 C-134.5016484 105.5243456 -135.48795247 106.45542231 -136.47949219 107.38085938 C-147.68516503 117.85524572 -157.08049137 129.8703461 -165 143 C-168.67697553 142.31974588 -171.47103928 140.73375804 -174.69140625 138.8671875 C-175.80193359 138.22523438 -176.91246094 137.58328125 -178.05664062 136.921875 C-178.63389893 136.58478516 -179.21115723 136.24769531 -179.8059082 135.90039062 C-181.52952228 134.89425037 -183.25788576 133.89626047 -184.98632812 132.8984375 C-192.10393142 128.76801486 -199.09608173 124.47826437 -206 120 C-202.52895331 104.35333436 -184.86267214 88.26862688 -174 77 C-173.46584473 76.44393066 -172.93168945 75.88786133 -172.38134766 75.31494141 C-165.31888627 68.00062404 -158.08460869 61.19288991 -150 55 C-149.01483398 54.23284668 -149.01483398 54.23284668 -148.00976562 53.45019531 C-135.95336749 44.09758208 -123.44541261 36.19873412 -110 29 C-108.93918213 28.42427246 -108.93918213 28.42427246 -107.85693359 27.83691406 C-84.64902534 15.32423359 -58.57678195 6.9131581 -32.5625 2.875 C-30.92498779 2.61734863 -30.92498779 2.61734863 -29.25439453 2.35449219 C-19.44119226 0.8470204 -9.94143736 0 0 0 Z " fill="#FCFCFC" transform="translate(371,171)"/>
<path d="M0 0 C64.62714166 3.93277524 121.91815312 27.0917807 169 72 C169.58217285 72.55349121 170.1643457 73.10698242 170.76416016 73.67724609 C178.77029882 81.3376701 186.01388348 89.27187845 192.62939453 98.16308594 C194.10020291 100.13429403 195.5944167 102.08647934 197.08984375 104.0390625 C198.10277372 105.37929376 199.1145239 106.72041765 200.125 108.0625 C200.59897217 108.68181396 201.07294434 109.30112793 201.5612793 109.93920898 C204.0654095 113.31860509 205.33946939 115.87672755 206 120 C205.48840332 120.30591064 204.97680664 120.61182129 204.44970703 120.92700195 C202.89973117 121.85425974 201.35012523 122.78213601 199.80078125 123.71044922 C198.00504565 124.78559675 196.20815369 125.85881508 194.41015625 126.93017578 C189.8337201 129.6649343 185.28976891 132.43387695 180.8046875 135.31640625 C179.99499512 135.83098389 179.18530273 136.34556152 178.35107422 136.87573242 C176.8052211 137.86151477 175.26743369 138.86008197 173.73876953 139.87231445 C173.04122559 140.31406006 172.34368164 140.75580566 171.625 141.2109375 C171.01914062 141.60587402 170.41328125 142.00081055 169.7890625 142.40771484 C168 143 168 143 165.91479492 142.29125977 C162.97166026 140.30652953 161.26279122 137.46336623 159.3125 134.5625 C158.41526686 133.27559262 157.51549444 131.99045217 156.61328125 130.70703125 C156.16807129 130.0723291 155.72286133 129.43762695 155.26416016 128.78369141 C143.86757818 112.703462 129.01679008 98.43137513 113 87 C112.14970215 86.38318359 112.14970215 86.38318359 111.28222656 85.75390625 C86.89529572 68.21171062 58.53303372 56.29574833 29 51 C28.31486328 50.87689453 27.62972656 50.75378906 26.92382812 50.62695312 C19.20845663 49.29235969 11.48122947 48.67101026 3.66796875 48.24609375 C1 48 1 48 0 47 C-0.09304018 45.52645652 -0.11746265 44.04849409 -0.11352539 42.57202148 C-0.11344986 41.63112167 -0.11337433 40.69022186 -0.11329651 39.72080994 C-0.10813522 38.69790359 -0.10297394 37.67499725 -0.09765625 36.62109375 C-0.0962413 35.57929459 -0.09482635 34.53749542 -0.09336853 33.46412659 C-0.0877508 30.12188906 -0.0751953 26.77971743 -0.0625 23.4375 C-0.05748728 21.17773534 -0.05292398 18.91796963 -0.04882812 16.65820312 C-0.03777561 11.10544609 -0.02102024 5.55272775 0 0 Z " fill="#FCFCFC" transform="translate(387,171)"/>
<path d="M0 0 C4.24465193 3.42837271 8.00641007 6.94873668 11.4453125 11.19140625 C20.87176576 22.15735565 32.5152362 31.30025329 44 40 C44.62342285 40.47501953 45.2468457 40.95003906 45.88916016 41.43945312 C53.96522055 47.57024533 62.08463 53.13556162 71 58 C69.74090051 60.63583484 68.37489138 63.00782009 66.671875 65.37890625 C58.05756916 77.66193525 51.30824776 90.66148256 44.52441406 104.02099609 C36.75151366 119.21076719 27.4072606 136.4618511 10.33984375 142.37890625 C3.82094276 144.109299 -2.03114307 142.87618494 -8 140 C-20.36811398 131.94581075 -27.49939554 116.01257824 -30.48120117 101.97290039 C-35.82492311 72.65697018 -31.6482829 42.97242435 -15 18 C-10.44272888 11.5847645 -5.66613992 5.47458003 0 0 Z " fill="#FDFDFD" transform="translate(173,607)"/>
<path d="M0 0 C3.10460973 1.34814212 4.87723753 2.72464425 6.953125 5.38671875 C7.75254517 6.41152344 7.75254517 6.41152344 8.56811523 7.45703125 C9.40064819 8.56111328 9.40064819 8.56111328 10.25 9.6875 C11.11443726 10.8321875 11.11443726 10.8321875 11.99633789 12 C19.06995619 21.56499921 24.28357838 31.46589009 28.375 42.625 C28.73356079 43.59083008 28.73356079 43.59083008 29.09936523 44.57617188 C37.50404667 69.05050679 35.3418061 98.48793691 24.1875 121.625 C20.05744097 129.60600726 14.89505811 137.73212984 6.33203125 141.4140625 C-0.43083993 143.11327636 -8.61735333 143.15116242 -15.05078125 140.2109375 C-29.1042021 131.48035541 -36.74869471 116.99946755 -43.75146484 102.60888672 C-50.69221562 88.36489942 -58.12416134 74.55703083 -68.234375 62.30078125 C-70 60 -70 60 -70 58 C-67.97265625 56.6953125 -67.97265625 56.6953125 -65.0625 55.125 C-51.23949628 47.26102969 -38.79762565 37.62278756 -27 27 C-26.4544043 26.51080078 -25.90880859 26.02160156 -25.34667969 25.51757812 C-17.26278608 18.24931319 -9.48227389 10.84712528 -2.3828125 2.6015625 C-1.61429517 1.71147181 -0.83152881 0.83152881 0 0 Z " fill="#FDFDFD" transform="translate(584,607)"/>
<path d="M0 0 C0.83015625 0.0721875 1.6603125 0.144375 2.515625 0.21875 C21.5957505 1.6557469 40.93370298 1.65793887 60 0 C58.31280067 18.24284277 49.20477117 46.56717759 35.67578125 59.78515625 C32.48219931 62.10031705 30.92291703 62.61940795 27 62 C14.25396756 52.98012623 9.4020265 32.26600942 4.74755859 18.23974609 C4.07419053 16.22228085 3.38110777 14.21349817 2.67578125 12.20703125 C2.30839844 11.14871094 1.94101562 10.09039063 1.5625 9 C1.25441406 8.113125 0.94632812 7.22625 0.62890625 6.3125 C0 4 0 4 0 0 Z " fill="#FCFCFC" transform="translate(349,701)"/>
<path d="M0 0 C0.79470703 -0.00386719 1.58941406 -0.00773437 2.40820312 -0.01171875 C18.8393694 0.01502033 32.44356077 4.85978075 46.5625 13.125 C47.45884155 13.62749268 47.45884155 13.62749268 48.37329102 14.14013672 C54.09641599 17.49125584 58.59877704 21.67805457 63.25 26.375 C63.98283203 27.08785156 64.71566406 27.80070312 65.47070312 28.53515625 C70.26022639 33.3289983 73.56707298 38.06913103 76.5625 44.125 C77.27122429 45.44520093 77.98208465 46.76425789 78.6953125 48.08203125 C79.36135128 49.36616439 80.02543465 50.65131375 80.6875 51.9375 C81.02136719 52.55947266 81.35523438 53.18144531 81.69921875 53.82226562 C87.26195256 64.69686486 88.1070218 75.76191665 88 87.8125 C87.99762329 88.51610657 87.99524658 89.21971313 87.99279785 89.94464111 C87.9195176 103.80760975 86.06393969 115.82095552 80.5703125 128.625 C76.8480153 137.85860546 75.06986187 147.19769001 74.15234375 157.04296875 C73.54949551 160.19295063 73.13328948 161.2887218 70.5625 163.125 C70.2325 163.125 69.9025 163.125 69.5625 163.125 C69.27614985 156.21767576 70.19751209 150.55228805 72.125 143.9375 C72.39022461 142.99205322 72.65544922 142.04660645 72.92871094 141.07250977 C74.6183396 135.13378882 76.4679134 129.25633057 78.38818359 123.38867188 C86.37778275 98.9598288 87.9660973 73.88844265 76.58447266 50.07373047 C64.8700211 27.73623589 46.21420909 13.64974124 22.37890625 5.8515625 C0.44902357 0.19420026 -23.11654739 3.80055872 -42.54882812 14.97460938 C-61.65243424 26.61062179 -76.1874812 45.42393639 -81.54296875 67.296875 C-85.47110111 85.76081805 -84.36390889 104.82943241 -77.47265625 122.4375 C-74.45221419 130.27925147 -72.28656888 138.43329353 -70.1875 146.5625 C-69.92453125 147.55576294 -69.92453125 147.55576294 -69.65625 148.5690918 C-68.6668302 152.50532691 -68.26207435 156.0714145 -68.4375 160.125 C-69.0975 160.125 -69.7575 160.125 -70.4375 160.125 C-72.27347911 156.85490845 -73.08847805 153.71960488 -73.875 150.0625 C-75.65977373 142.07563757 -77.57354125 134.2771477 -80.5 126.625 C-82.29033902 121.88265159 -83.28446963 117.24686394 -84.04296875 112.2421875 C-84.22687092 110.14709471 -84.22687092 110.14709471 -85.4375 109.125 C-86.69978853 102.72403333 -86.62114889 96.31703125 -86.625 89.8125 C-86.63724609 88.73548828 -86.64949219 87.65847656 -86.66210938 86.54882812 C-86.6743377 79.8191706 -86.05842755 73.65510657 -84.4375 67.125 C-84.17710937 66.03832031 -83.91671875 64.95164062 -83.6484375 63.83203125 C-81.83408625 57.5496281 -79.48387012 51.82808965 -76.4375 46.0625 C-76.10540527 45.43126221 -75.77331055 44.80002441 -75.43115234 44.1496582 C-73.47168659 40.58073445 -71.34190309 37.94156832 -68.4375 35.125 C-67.42831152 33.46388098 -66.42830645 31.79714842 -65.4375 30.125 C-53.77380491 16.24700518 -36.36625294 5.2161643 -18.4375 2.125 C-18.1075 1.795 -17.7775 1.465 -17.4375 1.125 C-11.59831293 0.19230645 -5.90473534 -0.02859436 0 0 Z " fill="#0B0B0B" transform="translate(378.4375,0.875)"/>
<path d="M0 0 C5.43402881 0.60378098 8.2377452 5.12885166 11.625 9 C13.69599124 11.61598893 15.3285204 14.12505508 17 17 C17.43054688 17.61230469 17.86109375 18.22460938 18.3046875 18.85546875 C35.20570442 42.89344359 39.7876372 73.98714882 34.8203125 102.63671875 C32.16362792 113.52912554 28.37358017 123.71978712 22 133 C21.61328125 133.64195312 21.2265625 134.28390625 20.828125 134.9453125 C16.73577487 141.42019523 10.19913852 145.58188446 3 148 C-7.19389909 149.32829594 -14.93915947 146.09041284 -23 140 C-25.14850203 138.08363497 -27.05102851 136.13458782 -29 134 C-29 133.34 -29 132.68 -29 132 C-29.66 132 -30.32 132 -31 132 C-32.48357686 130.03010542 -33.81414679 128.08202477 -35.125 126 C-35.52315918 125.37424072 -35.92131836 124.74848145 -36.33154297 124.10375977 C-40.38743447 117.59679698 -43.72404918 110.77842988 -47.07226562 103.89013672 C-53.94839154 89.88093491 -61.94426099 75.98697366 -72 64 C-71.34 62.68 -70.68 61.36 -70 60 C-60.21267091 73.38098462 -52.08951015 86.98555996 -44.50708008 101.70776367 C-32.88411992 125.58372839 -32.88411992 125.58372839 -13 142 C-6.49521788 144.05118399 2.01342617 144.31756211 8.3125 141.5625 C18.17433917 135.55423664 23.05001549 125.41116925 27 115 C27.25974609 114.32275879 27.51949219 113.64551758 27.78710938 112.94775391 C36.86231636 88.04925866 33.93931098 57.85449541 23 34 C18.14404117 23.98972397 12.37866164 15.33489052 5 7 C0 1.12587413 0 1.12587413 0 0 Z " fill="#101010" transform="translate(584,605)"/>
<path d="M0 0 C-1 3 -1 3 -3.9375 5.3125 C-20.39212751 19.03592909 -30.30176743 44.31522829 -33 65 C-34.59273793 89.23805827 -33.07589975 113.74103584 -18 133.8125 C-13.48272693 138.95988385 -8.06222013 143.4567523 -1 144 C0.5778125 144.1546875 0.5778125 144.1546875 2.1875 144.3125 C12.34388594 143.48000935 19.20549019 138.28263037 26 131 C32.18381673 122.99120153 37.08184519 114.51600881 41.57540894 105.48114014 C43.16343209 102.29314317 44.78720928 99.12344872 46.41015625 95.953125 C46.72376602 95.33952118 47.03737579 94.72591736 47.36048889 94.09371948 C62.56010073 64.47996642 62.56010073 64.47996642 70 62 C68.64218336 65.69591067 66.96163804 68.82998287 64.8125 72.125 C64.18859375 73.094375 63.5646875 74.06375 62.921875 75.0625 C61.71659489 76.90471675 60.4995769 78.73936386 59.265625 80.5625 C55.1394016 86.77076272 51.94166339 93.16636586 48.85107422 99.92749023 C46.56695269 104.89733091 44.01806596 109.42978583 41 114 C40.54625 114.928125 40.0925 115.85625 39.625 116.8125 C36.21976448 123.49200045 32.41065217 129.7805767 27 135 C26.46375 135.78375 25.9275 136.5675 25.375 137.375 C20.20977666 143.08393106 12.40859184 147.40421708 4.73046875 148.25 C-1.73852324 148.56798425 -6.38028375 147.11845526 -12 144 C-13.051875 143.4225 -14.10375 142.845 -15.1875 142.25 C-24.32872366 134.93702107 -29.48496245 122.93621219 -33 112 C-33.25378418 111.22817383 -33.50756836 110.45634766 -33.76904297 109.66113281 C-36.31957801 100.86979202 -36.4920624 92.38776537 -36.44604492 83.31103516 C-36.43755913 80.76772316 -36.46635039 78.2266841 -36.49804688 75.68359375 C-36.61867792 47.31447538 -24.44383157 21.59137119 -4.796875 1.43359375 C-3 0 -3 0 0 0 Z " fill="#0B0B0B" transform="translate(175,605)"/>
<path d="M0 0 C42.28288969 -0.97262243 42.28288969 -0.97262243 56.1875 7.00390625 C58.37125313 8.2040292 60.60846332 9.05346016 62.9375 9.9375 C71.27852248 13.21524125 78.68393448 17.8712118 86 23 C87.07121094 23.71671875 88.14242187 24.4334375 89.24609375 25.171875 C98.77966513 31.77577287 106.9529003 39.57121695 115.125 47.75 C115.66979004 48.29306793 116.21458008 48.83613586 116.77587891 49.3956604 C122.65719056 55.27907886 128.19796908 61.18186511 133 68 C133.78375 68.94875 134.5675 69.8975 135.375 70.875 C137 73 137 73 137 75 C137.66 75 138.32 75 139 75 C140.30078823 76.74036494 141.51488895 78.54581891 142.6875 80.375 C145.26564911 84.34712123 147.87082331 88.27283305 150.625 92.125 C163.00811708 109.79120766 176.65925974 133.30767239 176.125 155.5 C176.11597656 156.22703125 176.10695313 156.9540625 176.09765625 157.703125 C176.07442241 159.4688972 176.03856683 161.23449614 176 163 C174.02 163.99 174.02 163.99 172 165 C172.06960938 163.76507813 172.13921875 162.53015625 172.2109375 161.2578125 C173.20930719 135.79685139 161.30675585 113.50780955 147 93 C146.52723633 92.31760254 146.05447266 91.63520508 145.56738281 90.93212891 C131.96127014 71.40105407 116.77306505 50.89869891 98 36 C97.09636719 35.25878906 96.19273437 34.51757812 95.26171875 33.75390625 C81.45743086 22.62490215 66.63011818 14.11581796 50 8 C49.11699219 7.66355469 48.23398437 7.32710937 47.32421875 6.98046875 C36.34576608 3.02198582 25.3370757 2.73385557 13.8125 2.875 C12.36914689 2.88505821 10.92578694 2.894179 9.48242188 2.90234375 C5.98813606 2.92411309 2.49411363 2.95848325 -1 3 C-0.67 2.01 -0.34 1.02 0 0 Z " fill="#0C0C0C" transform="translate(568,211)"/>
<path d="M0 0 C2.12586646 0.02389444 4.2504952 0.02049419 6.37646484 0.01391602 C12.79891515 0.03990896 18.61790841 0.08446303 24.73193359 2.33618164 C25.72193359 3.82118164 25.72193359 3.82118164 26.73193359 5.33618164 C26.17973145 5.19615723 25.6275293 5.05613281 25.05859375 4.91186523 C17.40237168 3.1593481 9.9399952 2.9503686 2.10693359 2.96118164 C1.4424118 2.96172546 0.77789001 2.96226929 0.0932312 2.96282959 C-10.28225806 3.001871 -19.47643307 3.76446084 -29.26806641 7.33618164 C-31.09337891 7.97233398 -31.09337891 7.97233398 -32.95556641 8.62133789 C-55.16156164 16.72571571 -73.43071642 29.98220055 -90.26806641 46.33618164 C-91.13044922 47.15989258 -91.13044922 47.15989258 -92.01025391 48.00024414 C-103.70799281 59.18716475 -113.28207069 71.44586026 -122.74145508 84.5390625 C-124.48440635 86.9476635 -126.16186434 89.22997958 -128.26806641 91.33618164 C-128.59806641 90.34618164 -128.92806641 89.35618164 -129.26806641 88.33618164 C-127.97509766 86.03149414 -127.97509766 86.03149414 -126.08056641 83.46118164 C-125.42701172 82.56786133 -124.77345703 81.67454102 -124.10009766 80.75415039 C-122.19782443 78.24347421 -120.26619516 75.77140106 -118.26806641 73.33618164 C-117.07717554 71.81800206 -115.89001272 70.29689443 -114.70556641 68.77368164 C-113.83738281 67.65799805 -113.83738281 67.65799805 -112.95166016 66.51977539 C-111.82548613 65.05914596 -110.73398438 63.57114522 -109.67822266 62.05883789 C-109.21287109 61.49036133 -108.74751953 60.92188477 -108.26806641 60.33618164 C-107.60806641 60.33618164 -106.94806641 60.33618164 -106.26806641 60.33618164 C-105.93806641 59.34618164 -105.60806641 58.35618164 -105.26806641 57.33618164 C-104.60806641 57.33618164 -103.94806641 57.33618164 -103.26806641 57.33618164 C-102.93806641 56.34618164 -102.60806641 55.35618164 -102.26806641 54.33618164 C-101.60806641 54.33618164 -100.94806641 54.33618164 -100.26806641 54.33618164 C-100.02056641 53.77930664 -99.77306641 53.22243164 -99.51806641 52.64868164 C-96.75058111 47.52883384 -92.87230625 43.97574522 -88.49853516 40.25024414 C-85.3166552 37.51973419 -82.23925367 34.67558179 -79.15087891 31.84008789 C-77.26806641 30.33618164 -77.26806641 30.33618164 -75.26806641 30.33618164 C-74.77306641 28.85118164 -74.77306641 28.85118164 -74.26806641 27.33618164 C-72.66330723 26.3801549 -71.04971686 25.43666052 -69.40087891 24.55883789 C-67.03148796 23.20056066 -64.90317019 21.64468641 -62.70556641 20.02368164 C-44.49702296 7.17059215 -22.22151228 -0.26707302 0 0 Z " fill="#0F0F0E" transform="translate(172.26806640625,210.663818359375)"/>
<path d="M0 0 C1.95811692 2.93717538 2.82889637 5.22470128 3.8828125 8.56640625 C4.24141357 9.68354004 4.60001465 10.80067383 4.96948242 11.95166016 C5.35080322 13.1432373 5.73212402 14.33481445 6.125 15.5625 C13.32671396 39.86618685 13.32671396 39.86618685 28 60 C31.43490876 60.1296192 33.8690848 60.00638583 36.52319336 57.64453125 C40.17252699 53.32342358 42.87740326 49.00239826 45.25 43.875 C45.61988037 43.08891357 45.98976074 42.30282715 46.37084961 41.49291992 C51.86369229 29.38944508 55.85799392 16.61387614 60 4 C60.66 4 61.32 4 62 4 C61.49746266 10.63217037 60.16302011 16.13389851 57.75 22.3125 C57.43353516 23.14281738 57.11707031 23.97313477 56.79101562 24.82861328 C55.87257904 27.22390706 54.93848588 29.61250447 54 32 C53.56171875 33.13566406 53.1234375 34.27132812 52.671875 35.44140625 C43.32612313 58.83693844 43.32612313 58.83693844 35 63 C31.8640032 63.61953501 29.13229152 63.67194372 26 63 C11.6346962 53.32295435 5.757255 27.11175418 1 11.5625 C0.66995972 10.50699951 0.66995972 10.50699951 0.33325195 9.43017578 C-0.67724132 5.98460099 -1.39431744 3.40736324 0 0 Z " fill="#121212" transform="translate(348,702)"/>
<path d="M0 0 C0.33 0.99 0.66 1.98 1 3 C-0.484375 5.6171875 -0.484375 5.6171875 -2.75 8.875 C-6.83203999 14.94935708 -10.40714237 21.21084733 -13.8125 27.6875 C-14.26786133 28.54134277 -14.72322266 29.39518555 -15.19238281 30.27490234 C-22.20750092 43.75022672 -28.71147297 60.51909324 -24.16015625 75.82421875 C-21.86714134 80.49517505 -19.07110686 83.45289277 -14.21484375 85.40625 C-3.96910943 88.15290188 6.06558058 84.31718829 15.046875 79.296875 C16.75353759 78.24130912 18.44393902 77.1585443 20.109375 76.0390625 C20.73328125 75.69617188 21.3571875 75.35328125 22 75 C22.99 75.495 22.99 75.495 24 76 C18.18940108 84.12382314 7.63384301 88.13189903 -2 90 C-8.82897028 90.84321127 -14.39653689 90.17649424 -20 86 C-24.58122373 81.59045921 -28.64968075 77.31581239 -29.3359375 70.8203125 C-29.60258626 45.59533998 -15.90786326 20.7639554 -1 1 C-0.67 0.67 -0.34 0.34 0 0 Z " fill="#0B0B0B" transform="translate(43,300)"/>
<path d="M0 0 C1.52715032 4.67394671 -0.29653609 8.0102977 -2.0625 12.375 C-10.86060495 35.262007 -16.28741523 59.45145476 -17 84 C-17.33 84 -17.66 84 -18 84 C-18.38345178 80.33666605 -18.71124357 76.67201932 -19 73 C-19.05671875 72.29488281 -19.1134375 71.58976562 -19.171875 70.86328125 C-19.86088344 53.32801645 -13.48128206 33.46385085 -8 17 C-7.69594238 16.07598389 -7.69594238 16.07598389 -7.38574219 15.13330078 C-6.7482194 13.2096072 -6.09573652 11.2916955 -5.4375 9.375 C-4.84775391 7.65410156 -4.84775391 7.65410156 -4.24609375 5.8984375 C-3.09761477 3.22705378 -2.21988078 1.81451124 0 0 Z " fill="#080808" transform="translate(142,328)"/>
<path d="M0 0 C0.33 0 0.66 0 1 0 C1.95165615 12.23935554 -1.1901262 24.30779415 -5.9921875 35.5 C-9.7144847 44.73360546 -11.49263813 54.07269001 -12.41015625 63.91796875 C-13.01300449 67.06795063 -13.42921052 68.1637218 -16 70 C-16.33 70 -16.66 70 -17 70 C-17.28634868 63.09271105 -16.36504817 57.4272358 -14.4375 50.8125 C-14.17155029 49.86487793 -13.90560059 48.91725586 -13.6315918 47.94091797 C-11.42485241 40.18695626 -8.92632802 32.53498121 -6.40942383 24.87744141 C-4.17244309 17.92256807 -2.65943578 11.03279737 -1.5078125 3.82421875 C-1 1 -1 1 0 0 Z " fill="#101010" transform="translate(465,94)"/>
<path d="M0 0 C0.33 0 0.66 0 1 0 C2.35067042 16.02045196 -2.81543619 32.80422878 -7.40185547 48.01220703 C-7.9724432 49.90842144 -8.52002436 51.81151344 -9.06640625 53.71484375 C-9.39511719 54.79894531 -9.72382812 55.88304687 -10.0625 57 C-10.34222656 57.928125 -10.62195313 58.85625 -10.91015625 59.8125 C-12.21300083 62.42752855 -13.30164793 63.0126612 -16 64 C-15.06382164 58.34867939 -13.12595094 52.99316682 -11.34765625 47.56445312 C-7.77485002 36.47798152 -5.39874577 25.27414654 -3.375 13.8125 C-2.94889471 11.40170785 -2.51940302 8.99151089 -2.0859375 6.58203125 C-1.9007959 5.53249268 -1.7156543 4.4829541 -1.52490234 3.40161133 C-1 1 -1 1 0 0 Z " fill="#0D0E0D" transform="translate(634,456)"/>
<path d="M0 0 C0.33 0 0.66 0 1 0 C1.27199219 1.13824219 1.54398437 2.27648437 1.82421875 3.44921875 C2.95555655 7.97357668 4.36597414 12.38093869 5.8125 16.8125 C7.98776096 23.60597617 10.02456316 30.42315013 11.875 37.3125 C12.09003174 38.09407471 12.30506348 38.87564941 12.52661133 39.6809082 C13.63465351 43.89275106 14.2376648 47.60320121 14 52 C13.34 52 12.68 52 12 52 C10.16402089 48.72990845 9.34902195 45.59460488 8.5625 41.9375 C6.77038174 33.91777078 4.85411942 26.10577489 1.875 18.4375 C-0.35214422 12.48991564 -2.05758235 6.17274704 0 0 Z " fill="#141414" transform="translate(296,109)"/>
<path d="M0 0 C2.12586646 0.02389444 4.2504952 0.02049419 6.37646484 0.01391602 C12.79891515 0.03990896 18.61790841 0.08446303 24.73193359 2.33618164 C25.39193359 3.32618164 26.05193359 4.31618164 26.73193359 5.33618164 C26.18045654 5.19543213 25.62897949 5.05468262 25.06079102 4.90966797 C17.37802628 3.14438258 9.90369777 2.99218553 2.04443359 3.02368164 C1.38328552 3.02384277 0.72213745 3.02400391 0.04095459 3.02416992 C-9.72291282 3.04075147 -18.87693088 3.56826801 -28.26806641 6.33618164 C-27.93806641 5.34618164 -27.60806641 4.35618164 -27.26806641 3.33618164 C-18.61860369 -0.09414707 -9.16911362 -0.11020055 0 0 Z " fill="#212121" transform="translate(172.26806640625,210.663818359375)"/>
<path d="M0 0 C-0.33 0.99 -0.66 1.98 -1 3 C-3.78125 4.2890625 -3.78125 4.2890625 -7.5 5.625 C-18.92171724 9.90814396 -29.44977457 15.92812547 -40 22 C-38.62790403 18.71979218 -37.31057307 17.22676317 -34.2890625 15.37890625 C-33.54430664 14.92056396 -32.79955078 14.46222168 -32.03222656 13.98999023 C-31.2378418 13.51891846 -30.44345703 13.04784668 -29.625 12.5625 C-28.81514648 12.07531494 -28.00529297 11.58812988 -27.17089844 11.08618164 C-8.40651641 0 -8.40651641 0 0 0 Z " fill="#0B0B0B" transform="translate(144,215)"/>
<path d="M0 0 C0.66 0 1.32 0 2 0 C2.56047198 34.98207397 2.56047198 34.98207397 -1.57421875 39.85546875 C-2.04472656 40.23316406 -2.51523437 40.61085938 -3 41 C-4.19564685 37.2028995 -3.48812584 34.61694095 -2.55175781 30.77783203 C-1.41822403 25.07104117 -1.23678263 19.23491836 -0.875 13.4375 C-0.78863281 12.14263672 -0.70226562 10.84777344 -0.61328125 9.51367188 C-0.40266983 6.34279991 -0.19840787 3.17165499 0 0 Z " fill="#080808" transform="translate(618,673)"/>
<path d="M0 0 C0.33 0.99 0.66 1.98 1 3 C0.41734375 3.44988281 -0.1653125 3.89976562 -0.765625 4.36328125 C-11.18494813 12.53819044 -20.74540464 21.53507293 -30 31 C-30.33 30.01 -30.66 29.02 -31 28 C-28.15176076 23.18540313 -23.38148524 19.42252603 -19.16015625 15.84375 C-15.99611881 13.14316108 -12.94683364 10.31704064 -9.8828125 7.50390625 C-8 6 -8 6 -6 6 C-5.67 5.01 -5.34 4.02 -5 3 C-2.4375 1.3125 -2.4375 1.3125 0 0 Z " fill="#181818" transform="translate(103,235)"/>
<path d="M0 0 C0.33 0 0.66 0 1 0 C1.02505615 0.56807373 1.0501123 1.13614746 1.07592773 1.72143555 C1.55624081 12.49634996 2.06291571 23.25343757 3 34 C0 32 0 32 -0.6796875 29.1484375 C-1.24562806 23.66251115 -1.14469529 18.13311614 -1.125 12.625 C-1.12886719 11.52027344 -1.13273437 10.41554688 -1.13671875 9.27734375 C-1.13542969 8.22933594 -1.13414062 7.18132812 -1.1328125 6.1015625 C-1.13168457 5.14588379 -1.13055664 4.19020508 -1.12939453 3.20556641 C-1 1 -1 1 0 0 Z " fill="#060606" transform="translate(293,78)"/>
<path d="M0 0 C-1 3 -1 3 -3.9375 5.3125 C-9.81778529 10.10248239 -13.76963189 16.78638084 -18 23 C-18.66 22.67 -19.32 22.34 -20 22 C-17.40320842 14.80209714 -8.32917828 0 0 0 Z " fill="#101010" transform="translate(175,605)"/>
<path d="M0 0 C-0.45883494 6.72957905 -2.62116059 13.16382284 -6 19 C-8.671875 20.859375 -8.671875 20.859375 -11 22 C-9.66426223 17.84368109 -8.14344934 13.83039263 -6.4375 9.8125 C-5.19662438 6.88521182 -4.00555087 4.01665262 -3 1 C-1 0 -1 0 0 0 Z " fill="#121212" transform="translate(616,713)"/>
<path d="M0 0 C9.9 0 19.8 0 30 0 C30 0.66 30 1.32 30 2 C14.655 2.495 14.655 2.495 -1 3 C-0.67 2.01 -0.34 1.02 0 0 Z " fill="#2E2E2E" transform="translate(568,211)"/>
<path d="M0 0 C4.31098397 1.57658842 8.22289487 3.71320582 12.1875 6 C12.81591797 6.35578125 13.44433594 6.7115625 14.09179688 7.078125 C16.66706373 8.55442771 18.89138726 9.89138726 21 12 C20.67 12.99 20.34 13.98 20 15 C19.16597656 14.48050781 18.33195313 13.96101562 17.47265625 13.42578125 C11.0673035 9.45116308 4.64291213 5.5703507 -2 2 C-1.34 1.34 -0.68 0.68 0 0 Z " fill="#10100F" transform="translate(499,199)"/>
<path d="M0 0 C0.33 0 0.66 0 1 0 C1.02749766 1.37488287 1.0466164 2.74993391 1.0625 4.125 C1.07410156 4.89070313 1.08570312 5.65640625 1.09765625 6.4453125 C1 9 1 9 0.53125 11.78125 C-0.10648145 15.64515229 -0.34704803 19.4686086 -0.5625 23.375 C-0.60568359 24.11105469 -0.64886719 24.84710938 -0.69335938 25.60546875 C-0.79843799 27.40348068 -0.89962093 29.20171958 -1 31 C-1.33 31 -1.66 31 -2 31 C-4.33693972 8.67387944 -4.33693972 8.67387944 0 0 Z " fill="#171717" transform="translate(126,381)"/>
<path d="M0 0 C-0.41398096 6.52020013 -1.38453454 12.41472922 -5 18 C-5.99 18.33 -6.98 18.66 -8 19 C-7.2700656 14.99664845 -6.23079293 11.14724886 -5.0625 7.25 C-4.72347656 6.10015625 -4.38445313 4.9503125 -4.03515625 3.765625 C-2.62570621 0 -2.62570621 0 0 0 Z " fill="#131313" transform="translate(626,501)"/>
<path d="M0 0 C1.06669922 0.0515625 2.13339844 0.103125 3.23242188 0.15625 C4.88661133 0.25292969 4.88661133 0.25292969 6.57421875 0.3515625 C7.69634766 0.40828125 8.81847656 0.465 9.97460938 0.5234375 C12.73765949 0.66452942 15.4997486 0.81590531 18.26171875 0.9765625 C18.26171875 1.3065625 18.26171875 1.6365625 18.26171875 1.9765625 C16.39580078 2.05003906 16.39580078 2.05003906 14.4921875 2.125 C5.6123054 2.51123696 -3.04520134 2.96445636 -11.73828125 4.9765625 C-10.73828125 1.9765625 -10.73828125 1.9765625 -8.53442383 0.78759766 C-5.48138642 -0.09795113 -3.16770292 -0.16939588 0 0 Z " fill="#252626" transform="translate(366.73828125,2.0234375)"/>
<path d="M0 0 C0.66 0.99 1.32 1.98 2 3 C0.75146327 3.79397239 -0.49890043 4.58507217 -1.75 5.375 C-2.44609375 5.81585938 -3.1421875 6.25671875 -3.859375 6.7109375 C-5.86517383 7.91880906 -7.89178296 8.98387737 -10 10 C-10.33 9.01 -10.66 8.02 -11 7 C-8.81482901 4.59424393 -6.74080329 3.20464419 -3.8125 1.8125 C-2.73935547 1.29623047 -2.73935547 1.29623047 -1.64453125 0.76953125 C-1.10183594 0.51558594 -0.55914062 0.26164063 0 0 Z " fill="#0A0A0A" transform="translate(263,195)"/>
<path d="M0 0 C5.94 0 11.88 0 18 0 C18.33 0.99 18.66 1.98 19 3 C12.4 2.67 5.8 2.34 -1 2 C-0.67 1.34 -0.34 0.68 0 0 Z " fill="#040404" transform="translate(370,1)"/>
<path d="M0 0 C5.95507399 0.3916035 10.62819824 1.37124595 16 4 C16 4.66 16 5.32 16 6 C14.27073126 5.68806536 12.54158956 5.37542638 10.8125 5.0625 C9.84957031 4.88847656 8.88664063 4.71445313 7.89453125 4.53515625 C5.25760028 4.0476265 2.6280095 3.53328895 0 3 C0 2.01 0 1.02 0 0 Z " fill="#1A1A1A" transform="translate(598,211)"/>
<path d="M0 0 C-1 3 -1 3 -3.80078125 4.421875 C-4.95964844 4.86015625 -6.11851562 5.2984375 -7.3125 5.75 C-8.46363281 6.19859375 -9.61476562 6.6471875 -10.80078125 7.109375 C-13.85263425 7.9589751 -15.12612604 8.16374155 -18 7 C-4.48091603 0 -4.48091603 0 0 0 Z " fill="#070707" transform="translate(144,215)"/>
<path d="M0 0 C0.33 0.99 0.66 1.98 1 3 C-0.58093054 4.12837409 -2.16484716 5.25256518 -3.75 6.375 C-4.63171875 7.00148438 -5.5134375 7.62796875 -6.421875 8.2734375 C-8.57414979 9.71480941 -10.65460523 10.91498093 -13 12 C-11.53072232 8.38270223 -9.60198385 6.6339522 -6.5 4.3125 C-5.7059375 3.71050781 -4.911875 3.10851562 -4.09375 2.48828125 C-2 1 -2 1 0 0 Z " fill="#121212" transform="translate(335,13)"/>
<path d="M0 0 C0.33 0.99 0.66 1.98 1 3 C-0.07421875 5.0078125 -0.07421875 5.0078125 -1.6875 7.125 C-2.20699219 7.82882812 -2.72648438 8.53265625 -3.26171875 9.2578125 C-5.18169057 11.18209887 -6.34723083 11.61855607 -9 12 C-7.88096454 10.18381144 -6.75458716 8.37214474 -5.625 6.5625 C-4.68527344 5.04849609 -4.68527344 5.04849609 -3.7265625 3.50390625 C-2 1 -2 1 0 0 Z " fill="#080808" transform="translate(741,375)"/>
<path d="M0 0 C0 0.66 0 1.32 0 2 C-1.37285156 2.41572266 -1.37285156 2.41572266 -2.7734375 2.83984375 C-4.55621094 3.38318359 -4.55621094 3.38318359 -6.375 3.9375 C-8.15003906 4.47697266 -8.15003906 4.47697266 -9.9609375 5.02734375 C-12.87926818 5.87576274 -12.87926818 5.87576274 -15 7 C-14.765625 5.109375 -14.765625 5.109375 -14 3 C-9.79628985 0.67232578 -4.78732164 -0.46328919 0 0 Z " fill="#0D0D0C" transform="translate(567,212)"/>
<path d="M0 0 C-0.08746284 1.43861294 -0.19565348 2.87597508 -0.3125 4.3125 C-0.37050781 5.11300781 -0.42851563 5.91351563 -0.48828125 6.73828125 C-1.08206694 9.36272334 -1.95780294 10.30820672 -4 12 C-5.29922995 9.4015401 -4.81286289 8.24038549 -4.1875 5.4375 C-4.01605469 4.63183594 -3.84460938 3.82617188 -3.66796875 2.99609375 C-2.95693842 0.8713189 -2.40414441 0 0 0 Z " fill="#0B0B0B" transform="translate(629,490)"/>
<path d="M0 0 C-1.11666174 3.34998521 -1.74694925 3.79340222 -4.5625 5.6875 C-5.20316406 6.12449219 -5.84382812 6.56148437 -6.50390625 7.01171875 C-6.99761719 7.33785156 -7.49132812 7.66398438 -8 8 C-8 5 -8 5 -5.6875 2.3125 C-3 0 -3 0 0 0 Z " fill="#171717" transform="translate(175,605)"/>
<path d="M0 0 C1.32 0.66 2.64 1.32 4 2 C-1.445 4.475 -1.445 4.475 -7 7 C-4.93302609 2.86605218 -4.12145695 1.76633869 0 0 Z " fill="#151515" transform="translate(124,222)"/>
<path d="M0 0 C1.4552777 2.9105554 0.63516661 4.95849052 0.0625 8.125 C-0.13214844 9.22070312 -0.32679688 10.31640625 -0.52734375 11.4453125 C-0.68332031 12.28835937 -0.83929688 13.13140625 -1 14 C-3.51756835 10.22364747 -3.63772451 7.43634442 -3 3 C-1.5 1 -1.5 1 0 0 Z " fill="#1A1919" transform="translate(296,67)"/>
<path d="M0 0 C0.66 0 1.32 0 2 0 C3.80230168 3.82989106 4.19622241 6.78121808 4 11 C3.34 11 2.68 11 2 11 C0.80712589 7.12315913 0 4.08378077 0 0 Z " fill="#050505" transform="translate(738,345)"/>
<path d="M0 0 C0.33 0.99 0.66 1.98 1 3 C-1.97 5.475 -1.97 5.475 -5 8 C-5 5 -5 5 -2.5 2.3125 C-1.675 1.549375 -0.85 0.78625 0 0 Z " fill="#040404" transform="translate(321,23)"/>
<path d="M0 0 C-0.25 3.375 -0.25 3.375 -1 7 C-3.0625 8.4375 -3.0625 8.4375 -5 9 C-4.71848913 7.68528432 -4.42446661 6.37324233 -4.125 5.0625 C-3.96257813 4.33160156 -3.80015625 3.60070312 -3.6328125 2.84765625 C-2.93449973 0.80875539 -2.29775298 0 0 0 Z " fill="#1B1B1B" transform="translate(616,713)"/>
<path d="M0 0 C0.95465783 2.16967689 1.14401212 3.56328793 0.3984375 5.82421875 C-0.35870385 7.5684743 -1.17609198 9.28627131 -2 11 C-2.33 11 -2.66 11 -3 11 C-2.25 3.375 -2.25 3.375 0 0 Z " fill="#040404" transform="translate(298,57)"/>
<path d="M0 0 C-1.01176437 3.40320742 -1.64843582 4.75725331 -4.625 6.8125 C-5.40875 7.204375 -6.1925 7.59625 -7 8 C-4.18918919 0 -4.18918919 0 0 0 Z " fill="#121212" transform="translate(245,667)"/>
<path d="M0 0 C2.5625 0.375 2.5625 0.375 5.5625 4.375 C2.2625 3.715 -1.0375 3.055 -4.4375 2.375 C-2.4375 0.375 -2.4375 0.375 0 0 Z " fill="#171817" transform="translate(193.4375,211.625)"/>
<path d="M0 0 C0.66 0.66 1.32 1.32 2 2 C-0.97 2.66 -3.94 3.32 -7 4 C-6.67 3.01 -6.34 2.02 -6 1 C-3.125 0.375 -3.125 0.375 0 0 Z " fill="#151616" transform="translate(151,213)"/>
<path d="M0 0 C1.9451 2.91765 2.45276317 4.62537285 3 8 C2.01 7.67 1.02 7.34 0 7 C-0.38133299 5.0085944 -0.71325582 3.00720923 -1 1 C-0.67 0.67 -0.34 0.34 0 0 Z " fill="#0E0E0E" transform="translate(348,702)"/>
<path d="M0 0 C0.99 0.66 1.98 1.32 3 2 C-1.43076923 4.09230769 -1.43076923 4.09230769 -4.3125 3.625 C-4.869375 3.41875 -5.42625 3.2125 -6 3 C-4.02 2.01 -2.04 1.02 0 0 Z " fill="#0D0D0D" transform="translate(132,219)"/>
</svg>
